<svg xmlns="http://www.w3.org/2000/svg" xmlns:xlink="http://www.w3.org/1999/xlink" width="794" zoomAndPan="magnify" viewBox="0 0 595.5 842.249979" height="1123" preserveAspectRatio="xMidYMid meet" version="1.0"><defs><clipPath id="a116bf07f0"><path d="M 0.015625 0 L 594.984375 0 L 594.984375 841.5 L 0.015625 841.5 Z M 0.015625 0 " clip-rule="nonzero"/></clipPath><clipPath id="3cb00cff00"><path d="M 195 418 L 549.210938 418 L 549.210938 634 L 195 634 Z M 195 418 " clip-rule="nonzero"/></clipPath><clipPath id="f3965be9db"><path d="M 45.65625 133.15625 L 510 133.15625 L 510 657.691406 L 45.65625 657.691406 Z M 45.65625 133.15625 " clip-rule="nonzero"/></clipPath></defs><g clip-path="url(#a116bf07f0)"><path fill="#ffffff" d="M 0.015625 0 L 594.984375 0 L 594.984375 841.5 L 0.015625 841.5 Z M 0.015625 0 " fill-opacity="1" fill-rule="nonzero"/></g><g clip-path="url(#3cb00cff00)"><path fill="#fbb03b" d="M 453.3125 545.066406 C 469.0625 517.535156 478.0625 485.648438 478.0625 451.664062 C 478.0625 440.429688 477.078125 429.429688 475.191406 418.742188 C 467.5625 461.136719 445.027344 498.359375 413.1875 524.757812 C 394.765625 540.035156 367.339844 536.9375 352.925781 517.832031 L 326.019531 482.183594 C 321.546875 476.25 314.542969 472.765625 307.113281 472.765625 L 204.597656 472.765625 C 204.574219 472.765625 204.550781 472.773438 204.53125 472.773438 C 197.53125 472.820312 193 480.195312 196.144531 486.464844 L 200.226562 494.589844 C 207.8125 509.699219 222.746094 519.742188 239.601562 521.070312 L 245.675781 521.546875 L 272.257812 523.644531 C 279.785156 524.238281 286.570312 528.402344 290.507812 534.839844 L 302.566406 554.558594 L 309.316406 565.605469 L 347.136719 627.460938 C 347.808594 628.566406 348.652344 629.53125 349.613281 630.335938 C 352.382812 632.65625 356.140625 633.621094 359.78125 632.722656 C 359.8125 632.714844 359.835938 632.707031 359.863281 632.703125 C 457.960938 608.492188 533.53125 527.117188 549.222656 425.941406 C 535.449219 477.84375 500.082031 520.957031 453.3125 545.066406 " fill-opacity="1" fill-rule="nonzero"/></g><g clip-path="url(#f3965be9db)"><path fill="#60c0e2" d="M 283.273438 539.265625 C 280.761719 535.152344 276.394531 532.476562 271.59375 532.097656 L 238.933594 529.523438 C 219.246094 527.972656 201.507812 516.046875 192.648438 498.398438 L 188.78125 490.699219 C 186.035156 485.226562 185.972656 478.683594 189.003906 473.359375 C 192.136719 467.867188 197.777344 464.492188 204.035156 464.300781 L 204.597656 464.285156 L 237.421875 464.285156 C 226.71875 447.394531 207.433594 437.894531 187.476562 439.757812 L 153.367188 442.945312 C 138.757812 444.308594 125.628906 434.238281 122.941406 419.816406 C 120.949219 409.125 119.90625 398.097656 119.90625 386.828125 C 119.90625 329.683594 146.667969 278.792969 188.339844 246.003906 C 147.054688 273.1875 114.921875 313.144531 97.589844 360.253906 C 113.207031 246.765625 210.554688 159.347656 328.335938 159.347656 C 401.242188 159.347656 466.316406 192.851562 509.03125 245.289062 C 463.636719 178.0625 386.824219 133.796875 299.652344 133.570312 C 160.121094 133.207031 45.933594 246.902344 45.726562 386.441406 C 45.652344 435.5625 59.582031 481.421875 83.71875 520.273438 C 84.230469 521.09375 84.730469 521.914062 85.25 522.730469 L 119.054688 517 C 134.15625 514.445312 146.585938 529.042969 141.449219 543.476562 C 141.308594 543.871094 141.21875 544.089844 141.21875 544.089844 C 162.980469 552.003906 159.308594 573.203125 159.308594 573.203125 C 178.527344 581.96875 170.613281 600.058594 170.613281 600.058594 C 177.410156 602.867188 179.792969 608.359375 180.40625 610.15625 C 180.722656 611.074219 181.070312 611.980469 181.421875 612.886719 L 194.566406 646.617188 C 196.828125 652.417969 203.769531 657.160156 209.992188 657.160156 C 217.847656 657.160156 223.285156 649.3125 220.523438 641.957031 L 214.367188 625.582031 L 206.164062 603.742188 C 205.589844 602.214844 206.632812 600.542969 208.292969 600.421875 C 209.378906 600.339844 210.371094 601.050781 210.789062 602.058594 L 221.570312 628.019531 L 229.550781 647.234375 C 232.300781 653.851562 239.554688 657.648438 246.433594 655.640625 C 254.671875 653.230469 258.777344 644.003906 255.050781 636.277344 C 255.050781 636.273438 255.046875 636.265625 255.042969 636.253906 L 235.296875 595.46875 C 234.453125 593.71875 235.609375 591.660156 237.542969 591.472656 C 238.664062 591.363281 239.738281 591.941406 240.269531 592.929688 L 264.300781 637.710938 L 267.277344 643.261719 C 270.214844 648.738281 276.648438 651.589844 282.546875 649.636719 C 287.132812 648.121094 290.1875 644.285156 291 639.945312 C 291.492188 637.300781 291.152344 634.472656 289.808594 631.867188 L 271.003906 595.421875 C 270.175781 593.820312 270.785156 591.761719 272.453125 591.074219 C 273.929688 590.457031 275.582031 591.089844 276.308594 592.453125 L 297.558594 632.597656 C 299.277344 635.839844 301.835938 638.355469 304.828125 640.015625 C 309.804688 642.777344 315.984375 643.167969 321.496094 640.570312 C 322.558594 640.070312 323.53125 639.464844 324.445312 638.804688 C 331.980469 633.332031 334.34375 622.800781 329.289062 614.53125 L 283.273438 539.265625 " fill-opacity="1" fill-rule="nonzero"/></g><path fill="#fbb03b" d="M 99.558594 554.488281 L 126.148438 550.074219 C 134.128906 548.75 139.523438 541.210938 138.199219 533.230469 C 136.878906 525.25 129.335938 519.851562 121.355469 521.175781 L 94.765625 525.589844 C 86.785156 526.910156 81.390625 534.453125 82.714844 542.433594 C 84.035156 550.414062 91.578125 555.808594 99.558594 554.488281 " fill-opacity="1" fill-rule="nonzero"/><path fill="#fbb03b" d="M 151.769531 562.058594 C 150.445312 554.078125 142.902344 548.683594 134.921875 550.007812 L 98.628906 556.945312 C 90.648438 558.273438 85.25 565.808594 86.578125 573.789062 C 87.898438 581.769531 95.441406 587.167969 103.421875 585.84375 L 139.71875 578.90625 C 147.695312 577.582031 153.089844 570.039062 151.769531 562.058594 " fill-opacity="1" fill-rule="nonzero"/><path fill="#fbb03b" d="M 164.015625 592.210938 C 162.691406 584.226562 155.152344 578.832031 147.171875 580.160156 L 120.578125 584.566406 C 112.601562 585.890625 107.207031 593.433594 108.527344 601.414062 C 109.851562 609.394531 117.394531 614.789062 125.375 613.464844 L 151.964844 609.054688 C 159.945312 607.730469 165.339844 600.191406 164.015625 592.210938 " fill-opacity="1" fill-rule="nonzero"/><path fill="#fbb03b" d="M 165.636719 608.425781 L 143.800781 611.902344 C 135.820312 613.222656 130.425781 620.765625 131.75 628.746094 C 133.074219 636.722656 140.617188 642.117188 148.59375 640.796875 L 170.433594 637.320312 C 178.410156 635.996094 183.804688 628.453125 182.484375 620.476562 C 181.160156 612.496094 173.617188 607.101562 165.636719 608.425781 " fill-opacity="1" fill-rule="nonzero"/></svg>